<?xml version="1.0" standalone="yes"?>
<svg width="842" height="595" viewBox="0 0 842 595" preserveAspectRatio="xMidYMid" id="loading-logo">
  <path  fill-rule="evenodd" style="fill:black; stroke:none;" d="M606 198.529C583.161 203.808 591.155 240.602 614 235.47C638.354 229.998 630.643 192.834 606 198.529M176 200.609C151.221 202.121 154.31 239.625 179 237.903C203.056 236.224 200.128 199.136 176 200.609M547 200L547 352C552.424 352 570.438 354.859 573.972 350.397C576.046 347.779 575 342.121 575 339L575 311L575 200L547 200M134 328L133 353C166.871 359.288 211.376 344.77 208.086 304C207.566 297.557 206.171 291.525 202.612 286C185.358 259.214 150.236 269.467 127.015 254.031C117.093 247.435 119.511 235.823 129.001 230.228C135.634 226.316 143.618 227 151 227C151.006 218.295 152.316 209.661 153 201C138.108 201 121.501 202.623 109.001 211.44C90.2168 224.689 86.8186 255.222 103.093 271.957C122.039 291.438 153.303 283.566 173.995 298.637C192.646 312.222 169.087 327.057 155 328.025C147.826 328.517 141.169 328.02 134 328M479 210L479 241L465 241L465 264L479 264C479 294.693 470.293 346.583 512 352.572C518.703 353.534 525.343 352.841 532 352C532 343.908 532.015 336.029 531 328C497.485 335.979 507 283.75 507 264L531 264L531 241L507 241L507 210L479 210M250 257C248.479 251.854 249 246.34 249 241L223 241L223 396L250 396L250 337C269.429 360.843 304.89 358.648 323.076 334C338.46 313.15 338.664 278.57 322.482 258C306.262 237.381 263.489 226.755 250 257M396 238.428C386.337 239.797 376.975 243.017 369 248.785C322.958 282.085 351.562 363.152 410 353.675C419.57 352.123 429.299 348.255 437 342.319C480.211 309.012 452.481 230.428 396 238.428M691 238.425C681.322 239.743 671.989 242.682 664 248.49C618.332 281.69 644.848 360.855 703 353.714C712.016 352.607 720.325 349.832 728 344.91C775.756 314.283 749.355 230.478 691 238.425M597 241L597 352L624 352L624 241L597 241z M276 262.478C239.513 266.612 242.051 333.181 280 329.826C317.93 326.472 314.108 258.161 276 262.478M400 262.478C363.186 266.649 366.129 334.187 404 329.707C441.162 325.31 437.719 258.205 400 262.478M690 263.529C654.149 271.759 665.084 338.265 704 328.761C739.064 320.198 728.522 254.686 690 263.529z M103 317.638C79.2233 324.501 89.1497 361.103 113 354.211C136.554 347.404 126.052 310.984 103 317.638z "/>
   <text x="770" y="410" font-family="Verdana" font-weight="bold" text-anchor="end" font-size="55" fill="black" >
    for business
  </text>
</svg>